<svg width="100" height="100" viewBox="0 0 100 100" fill="none" xmlns="http://www.w3.org/2000/svg">
  <style>
    path {
      fill: white;
    }
    rect {
      fill: black;
    }
    @media (prefers-color-scheme: dark) {
      path {
        fill: black;
      }
      rect {
        fill: white;
      }
    }
  </style>

  <rect width="100" height="100" fill="white"/>
  <path d="M31.1818 27.4545H43.6364V59.3636C43.6212 62.3939 42.8561 65.0606 41.3409 67.3636C39.8409 69.6515 37.7652 71.4394 35.1136 72.7273C32.4773 74 29.4394 74.6364 26 74.6364C23.0152 74.6364 20.2879 74.1212 17.8182 73.0909C15.3485 72.0454 13.3788 70.4091 11.9091 68.1818C10.4394 65.9394 9.71213 63.0303 9.72728 59.4545H22.3636C22.4091 60.6212 22.6061 61.6061 22.9546 62.4091C23.3182 63.2121 23.8182 63.8182 24.4546 64.2273C25.1061 64.6212 25.8939 64.8182 26.8182 64.8182C27.7576 64.8182 28.5455 64.6136 29.1818 64.2045C29.8333 63.7954 30.3258 63.1894 30.6591 62.3864C30.9924 61.5682 31.1667 60.5606 31.1818 59.3636V27.4545Z" fill="black"/>
  <path d="M74.7159 42C74.5947 40.4848 74.0265 39.303 73.0114 38.4545C72.0114 37.6061 70.4887 37.1818 68.4432 37.1818C67.1402 37.1818 66.072 37.3409 65.2386 37.6591C64.4205 37.9621 63.8144 38.3788 63.4205 38.9091C63.0265 39.4394 62.822 40.0454 62.8068 40.7273C62.7765 41.2879 62.875 41.7954 63.1023 42.25C63.3447 42.6894 63.7235 43.0909 64.2386 43.4545C64.7538 43.803 65.4129 44.1212 66.2159 44.4091C67.019 44.697 67.9735 44.9545 69.0796 45.1818L72.8977 46C75.4735 46.5454 77.678 47.2651 79.5114 48.1591C81.3447 49.053 82.8447 50.1061 84.0114 51.3182C85.178 52.5151 86.0341 53.8636 86.5796 55.3636C87.1402 56.8636 87.428 58.5 87.4432 60.2727C87.428 63.3333 86.6629 65.9242 85.1477 68.0455C83.6326 70.1667 81.4659 71.7803 78.6477 72.8864C75.8447 73.9924 72.4735 74.5455 68.5341 74.5455C64.4886 74.5455 60.9583 73.947 57.9432 72.75C54.9432 71.553 52.6099 69.7121 50.9432 67.2273C49.2917 64.7273 48.4583 61.5303 48.4432 57.6364H60.4432C60.519 59.0606 60.875 60.2576 61.5114 61.2273C62.1477 62.197 63.0417 62.9318 64.1932 63.4318C65.3599 63.9318 66.7462 64.1818 68.3523 64.1818C69.7008 64.1818 70.8296 64.0151 71.7387 63.6818C72.6477 63.3485 73.3371 62.8864 73.8068 62.2955C74.2765 61.7045 74.5189 61.0303 74.5341 60.2727C74.5189 59.5606 74.2841 58.9394 73.8296 58.4091C73.3902 57.8636 72.6629 57.3788 71.6477 56.9545C70.6326 56.5151 69.2614 56.1061 67.5341 55.7273L62.8977 54.7273C58.7765 53.8333 55.5265 52.3409 53.1477 50.25C50.7841 48.1439 49.6099 45.2727 49.625 41.6364C49.6099 38.6818 50.3977 36.0985 51.9886 33.8864C53.5947 31.6591 55.8144 29.9242 58.6477 28.6818C61.4962 27.4394 64.7614 26.8182 68.4432 26.8182C72.2008 26.8182 75.4508 27.447 78.1932 28.7045C80.9356 29.9621 83.0492 31.7348 84.5341 34.0227C86.0341 36.2954 86.7917 38.9545 86.8068 42H74.7159Z" fill="black"/>
</svg>
